<mxfile host="app.diagrams.net" modified="2021-03-24T15:18:00.035Z" agent="5.0 (Windows NT 10.0; Win64; x64) AppleWebKit/537.36 (KHTML, like Gecko) Chrome/86.0.4240.198 Whale/2.9.115.16 Safari/537.36" etag="UUUVjiZH-kdjDbwlbaN5" version="14.5.1" type="github">
  <diagram id="C5RBs43oDa-KdzZeNtuy" name="Page-1">
    <mxGraphModel dx="823" dy="1070" grid="1" gridSize="10" guides="1" tooltips="1" connect="1" arrows="1" fold="1" page="1" pageScale="1" pageWidth="827" pageHeight="1169" math="0" shadow="0">
      <root>
        <mxCell id="WIyWlLk6GJQsqaUBKTNV-0" />
        <mxCell id="WIyWlLk6GJQsqaUBKTNV-1" parent="WIyWlLk6GJQsqaUBKTNV-0" />
        <mxCell id="j5hfvgeBv5rzAkdsDiP9-0" value="" style="rounded=0;whiteSpace=wrap;html=1;" vertex="1" parent="WIyWlLk6GJQsqaUBKTNV-1">
          <mxGeometry x="154" y="70" width="520" height="680" as="geometry" />
        </mxCell>
        <mxCell id="j5hfvgeBv5rzAkdsDiP9-19" style="edgeStyle=orthogonalEdgeStyle;rounded=0;orthogonalLoop=1;jettySize=auto;html=1;exitX=0.5;exitY=0.5;exitDx=0;exitDy=0;exitPerimeter=0;" edge="1" parent="WIyWlLk6GJQsqaUBKTNV-1" source="j5hfvgeBv5rzAkdsDiP9-1" target="j5hfvgeBv5rzAkdsDiP9-6">
          <mxGeometry relative="1" as="geometry">
            <Array as="points">
              <mxPoint x="65" y="220" />
            </Array>
          </mxGeometry>
        </mxCell>
        <mxCell id="j5hfvgeBv5rzAkdsDiP9-20" style="edgeStyle=orthogonalEdgeStyle;rounded=0;orthogonalLoop=1;jettySize=auto;html=1;exitX=0.5;exitY=0.5;exitDx=0;exitDy=0;exitPerimeter=0;entryX=0;entryY=0.5;entryDx=0;entryDy=0;" edge="1" parent="WIyWlLk6GJQsqaUBKTNV-1" source="j5hfvgeBv5rzAkdsDiP9-1" target="j5hfvgeBv5rzAkdsDiP9-7">
          <mxGeometry relative="1" as="geometry" />
        </mxCell>
        <mxCell id="j5hfvgeBv5rzAkdsDiP9-1" value="Player" style="shape=umlActor;verticalLabelPosition=bottom;verticalAlign=top;html=1;outlineConnect=0;" vertex="1" parent="WIyWlLk6GJQsqaUBKTNV-1">
          <mxGeometry x="40" y="505" width="50" height="80" as="geometry" />
        </mxCell>
        <mxCell id="j5hfvgeBv5rzAkdsDiP9-16" style="edgeStyle=orthogonalEdgeStyle;rounded=0;orthogonalLoop=1;jettySize=auto;html=1;exitX=0.5;exitY=0.5;exitDx=0;exitDy=0;exitPerimeter=0;" edge="1" parent="WIyWlLk6GJQsqaUBKTNV-1" source="j5hfvgeBv5rzAkdsDiP9-3" target="j5hfvgeBv5rzAkdsDiP9-5">
          <mxGeometry relative="1" as="geometry">
            <Array as="points">
              <mxPoint x="730" y="545" />
              <mxPoint x="730" y="220" />
            </Array>
          </mxGeometry>
        </mxCell>
        <mxCell id="j5hfvgeBv5rzAkdsDiP9-17" style="edgeStyle=orthogonalEdgeStyle;rounded=0;orthogonalLoop=1;jettySize=auto;html=1;exitX=0.5;exitY=0.5;exitDx=0;exitDy=0;exitPerimeter=0;" edge="1" parent="WIyWlLk6GJQsqaUBKTNV-1" source="j5hfvgeBv5rzAkdsDiP9-3" target="j5hfvgeBv5rzAkdsDiP9-9">
          <mxGeometry relative="1" as="geometry" />
        </mxCell>
        <mxCell id="j5hfvgeBv5rzAkdsDiP9-3" value="System" style="shape=umlActor;verticalLabelPosition=bottom;verticalAlign=top;html=1;outlineConnect=0;" vertex="1" parent="WIyWlLk6GJQsqaUBKTNV-1">
          <mxGeometry x="750" y="505" width="50" height="80" as="geometry" />
        </mxCell>
        <mxCell id="j5hfvgeBv5rzAkdsDiP9-5" value="&lt;font style=&quot;font-size: 18px&quot;&gt;&lt;b&gt;데이터&lt;br&gt;베이스&lt;/b&gt;&lt;/font&gt;" style="shape=cylinder3;whiteSpace=wrap;html=1;boundedLbl=1;backgroundOutline=1;size=15;" vertex="1" parent="WIyWlLk6GJQsqaUBKTNV-1">
          <mxGeometry x="550" y="180" width="90" height="80" as="geometry" />
        </mxCell>
        <mxCell id="j5hfvgeBv5rzAkdsDiP9-6" value="&lt;font style=&quot;font-size: 18px&quot;&gt;&lt;b&gt;케릭터별 &lt;br&gt;장비 셰팅&lt;/b&gt;&lt;/font&gt;" style="ellipse;whiteSpace=wrap;html=1;" vertex="1" parent="WIyWlLk6GJQsqaUBKTNV-1">
          <mxGeometry x="240" y="180" width="120" height="80" as="geometry" />
        </mxCell>
        <mxCell id="j5hfvgeBv5rzAkdsDiP9-7" value="" style="ellipse;whiteSpace=wrap;html=1;" vertex="1" parent="WIyWlLk6GJQsqaUBKTNV-1">
          <mxGeometry x="240" y="505" width="120" height="80" as="geometry" />
        </mxCell>
        <mxCell id="j5hfvgeBv5rzAkdsDiP9-9" value="&lt;font style=&quot;font-size: 18px&quot;&gt;&lt;b&gt;UI 출력&lt;/b&gt;&lt;/font&gt;" style="ellipse;whiteSpace=wrap;html=1;" vertex="1" parent="WIyWlLk6GJQsqaUBKTNV-1">
          <mxGeometry x="535" y="505" width="120" height="80" as="geometry" />
        </mxCell>
        <mxCell id="j5hfvgeBv5rzAkdsDiP9-14" value="" style="endArrow=none;dashed=1;html=1;dashPattern=1 3;strokeWidth=2;entryX=1;entryY=0.5;entryDx=0;entryDy=0;exitX=0;exitY=0.5;exitDx=0;exitDy=0;exitPerimeter=0;" edge="1" parent="WIyWlLk6GJQsqaUBKTNV-1" source="j5hfvgeBv5rzAkdsDiP9-5" target="j5hfvgeBv5rzAkdsDiP9-6">
          <mxGeometry width="50" height="50" relative="1" as="geometry">
            <mxPoint x="380" y="390" as="sourcePoint" />
            <mxPoint x="430" y="340" as="targetPoint" />
          </mxGeometry>
        </mxCell>
        <mxCell id="j5hfvgeBv5rzAkdsDiP9-15" value="&lt;font size=&quot;1&quot;&gt;&lt;b style=&quot;font-size: 18px&quot;&gt;&amp;lt;include&amp;gt;&lt;/b&gt;&lt;/font&gt;" style="edgeLabel;html=1;align=center;verticalAlign=middle;resizable=0;points=[];" vertex="1" connectable="0" parent="j5hfvgeBv5rzAkdsDiP9-14">
          <mxGeometry x="-0.3545" relative="1" as="geometry">
            <mxPoint x="11.43" y="-20.000000000000004" as="offset" />
          </mxGeometry>
        </mxCell>
        <mxCell id="j5hfvgeBv5rzAkdsDiP9-21" value="" style="endArrow=none;dashed=1;html=1;dashPattern=1 3;strokeWidth=2;entryX=1;entryY=0.5;entryDx=0;entryDy=0;exitX=0;exitY=0.5;exitDx=0;exitDy=0;" edge="1" parent="WIyWlLk6GJQsqaUBKTNV-1" source="j5hfvgeBv5rzAkdsDiP9-9" target="j5hfvgeBv5rzAkdsDiP9-7">
          <mxGeometry width="50" height="50" relative="1" as="geometry">
            <mxPoint x="540" y="440" as="sourcePoint" />
            <mxPoint x="350" y="440" as="targetPoint" />
          </mxGeometry>
        </mxCell>
        <mxCell id="j5hfvgeBv5rzAkdsDiP9-22" value="&lt;font size=&quot;1&quot;&gt;&lt;b style=&quot;font-size: 18px&quot;&gt;&amp;lt;include&amp;gt;&lt;/b&gt;&lt;/font&gt;" style="edgeLabel;html=1;align=center;verticalAlign=middle;resizable=0;points=[];" vertex="1" connectable="0" parent="j5hfvgeBv5rzAkdsDiP9-21">
          <mxGeometry x="-0.3545" relative="1" as="geometry">
            <mxPoint x="11.43" y="-20.000000000000004" as="offset" />
          </mxGeometry>
        </mxCell>
      </root>
    </mxGraphModel>
  </diagram>
</mxfile>
